<?xml version="1.0" encoding="UTF-8" standalone="no"?>
<!DOCTYPE svg PUBLIC "-//W3C//DTD SVG 1.1//EN" "http://www.w3.org/Graphics/SVG/1.1/DTD/svg11.dtd">
<svg width="100%" height="100%" viewBox="0 0 1278 1070" version="1.1" xmlns="http://www.w3.org/2000/svg" xmlns:xlink="http://www.w3.org/1999/xlink" xml:space="preserve" xmlns:serif="http://www.serif.com/" style="fill-rule:evenodd;clip-rule:evenodd;stroke-linejoin:round;stroke-miterlimit:2;">
    <g transform="matrix(1,0,0,1,-694,-1165)">
        <g transform="matrix(1,0,0,0.708178,-177.434,561.324)">
            <path d="M1984.63,1921.31L2137.84,2227.74C2150.94,2253.94 2152.61,2288.27 2142.16,2316.74C2131.71,2345.22 2110.89,2363.1 2088.18,2363.1L932.959,2363.1C910.247,2363.1 889.43,2345.22 878.982,2316.74C868.534,2288.27 870.198,2253.94 883.298,2227.74L1036.51,1921.31C1043.64,1925.38 1051.36,1927.58 1059.31,1927.58L1096.56,1927.58L1460.91,1198.88C1472.3,1176.09 1490.82,1162.54 1510.57,1162.54C1530.32,1162.54 1548.84,1176.09 1560.23,1198.88L1924.58,1927.58L1961.83,1927.58C1969.78,1927.58 1977.5,1925.38 1984.63,1921.31ZM1036.51,1921.31C1023.29,1913.76 1012.12,1899.73 1005.34,1881.22C994.888,1852.75 996.553,1818.42 1009.65,1792.22L1460.91,889.71C1472.3,866.927 1490.82,853.379 1510.57,853.379C1530.32,853.379 1548.84,866.927 1560.23,889.71L2011.49,1792.22C2024.59,1818.42 2026.25,1852.75 2015.8,1881.22C2009.02,1899.73 1997.85,1913.76 1984.63,1921.31L1560.23,1072.52C1548.84,1049.74 1530.32,1036.19 1510.57,1036.19C1490.82,1036.19 1472.3,1049.74 1460.91,1072.52L1036.51,1921.31Z" style="fill:rgb(235,235,235);"/>
        </g>
    </g>
</svg>
