<?xml version="1.0" encoding="UTF-8" standalone="no"?>
<!DOCTYPE svg PUBLIC "-//W3C//DTD SVG 1.1//EN" "http://www.w3.org/Graphics/SVG/1.1/DTD/svg11.dtd">
<svg width="100%" height="100%" viewBox="0 0 1206 242" version="1.1" xmlns="http://www.w3.org/2000/svg" xmlns:xlink="http://www.w3.org/1999/xlink" xml:space="preserve" xmlns:serif="http://www.serif.com/" style="fill-rule:evenodd;clip-rule:evenodd;stroke-linejoin:round;stroke-miterlimit:2;">
    <g transform="matrix(1,0,0,1,-228,-398)">
        <g id="BishopsLogo">
            <g id="BISHOPS">
                <g transform="matrix(1,0,0,0.744524,-716,404.108)">
                    <path d="M982.508,204.912L982.508,-4.542L1066.37,-4.542C1089.49,-4.542 1106.86,0.486 1118.48,10.543C1130.11,20.6 1135.92,33.469 1135.92,49.151C1135.92,61.492 1132.34,71.464 1125.18,79.066C1118.02,86.668 1108.99,91.697 1098.08,94.151L1098.08,96.197C1106.05,96.537 1113.54,98.787 1120.53,102.947C1127.51,107.106 1133.19,112.901 1137.55,120.333C1141.92,127.765 1144.1,136.662 1144.1,147.026C1144.1,158.14 1141.36,168.06 1135.87,176.787C1130.38,185.515 1122.28,192.384 1111.58,197.395C1100.87,202.407 1087.68,204.912 1072,204.912L982.508,204.912ZM1026.79,168.708L1062.89,168.708C1075.3,168.708 1084.32,166.322 1089.95,161.549C1095.57,156.776 1098.38,150.469 1098.38,142.628C1098.38,133.969 1095.3,126.878 1089.13,121.356C1082.96,115.833 1074.55,113.072 1063.92,113.072L1026.79,113.072L1026.79,168.708ZM1026.79,83.106L1059.62,83.106C1068.69,83.106 1076.22,80.736 1082.22,75.998C1088.22,71.259 1091.22,64.765 1091.22,56.515C1091.22,48.947 1088.55,42.844 1083.2,38.208C1077.84,33.572 1070.26,31.253 1060.44,31.253L1026.79,31.253L1026.79,83.106Z" style="fill:rgb(240,78,37);fill-rule:nonzero;"/>
                </g>
                <g transform="matrix(1,0,0,0.744524,-727,404.108)">
                    <rect x="1172.84" y="-4.542" width="44.284" height="209.455" style="fill:rgb(240,78,37);fill-rule:nonzero;"/>
                </g>
                <g transform="matrix(1,0,0,0.744524,-739.551,404.108)">
                    <path d="M1367.26,55.697C1366.44,47.447 1362.91,41.037 1356.67,36.469C1350.43,31.901 1342.03,29.617 1331.46,29.617C1320.62,29.617 1312.3,31.833 1306.51,36.265C1300.71,40.697 1297.82,46.287 1297.82,53.037C1297.68,60.537 1300.9,66.214 1307.48,70.066C1314.06,73.918 1321.88,76.901 1330.95,79.015L1349.77,83.515C1361.91,86.242 1372.7,90.197 1382.14,95.378C1391.58,100.56 1399.01,107.225 1404.43,115.373C1409.86,123.52 1412.57,133.424 1412.57,145.083C1412.5,164.242 1405.32,179.498 1391.04,190.85C1376.75,202.202 1356.83,207.878 1331.26,207.878C1305.83,207.878 1285.54,202.083 1270.41,190.492C1255.27,178.901 1247.43,161.787 1246.88,139.151L1289.74,139.151C1290.49,149.651 1294.63,157.543 1302.16,162.827C1309.7,168.111 1319.22,170.753 1330.75,170.753C1342,170.753 1350.98,168.367 1357.7,163.594C1364.41,158.822 1367.8,152.617 1367.87,144.981C1367.8,137.89 1364.7,132.435 1358.57,128.617C1352.43,124.799 1343.67,121.526 1332.28,118.799L1309.47,113.072C1291.82,108.844 1277.87,102.128 1267.64,92.924C1257.42,83.719 1252.34,71.412 1252.41,56.003C1252.34,43.322 1255.73,32.225 1262.58,22.714C1269.43,13.202 1278.86,5.805 1290.86,0.52C1302.86,-4.764 1316.5,-7.406 1331.77,-7.406C1347.32,-7.406 1360.9,-4.747 1372.53,0.572C1384.15,5.89 1393.2,13.287 1399.68,22.765C1406.16,32.242 1409.5,43.219 1409.7,55.697L1367.26,55.697Z" style="fill:rgb(240,78,37);fill-rule:nonzero;"/>
                </g>
                <g transform="matrix(1,0,0,0.744524,-752,406.316)">
                    <path d="M1442.22,204.912L1442.22,-4.542L1486.51,-4.542L1486.51,78.912L1553.63,78.912L1553.63,-4.542L1597.81,-4.542L1597.81,204.912L1553.63,204.912L1553.63,118.39L1486.51,118.39L1486.51,204.912L1442.22,204.912Z" style="fill:rgb(240,78,37);fill-rule:nonzero;"/>
                </g>
                <g transform="matrix(1,0,0,0.744524,-790.398,404.108)">
                    <path d="M1849.58,100.185C1849.58,123.026 1845.26,142.458 1836.64,158.481C1828.01,174.503 1816.3,186.725 1801.51,195.145C1786.71,203.566 1770.04,207.776 1751.5,207.776C1732.88,207.776 1716.18,203.549 1701.38,195.094C1686.59,186.64 1674.89,174.384 1666.3,158.327C1657.71,142.27 1653.42,122.89 1653.42,100.185C1653.42,77.344 1657.71,57.912 1666.3,41.89C1674.89,25.867 1686.59,13.645 1701.38,5.225C1716.18,-3.195 1732.88,-7.406 1751.5,-7.406C1770.04,-7.406 1786.71,-3.195 1801.51,5.225C1816.3,13.645 1828.01,25.867 1836.64,41.89C1845.26,57.912 1849.58,77.344 1849.58,100.185ZM1804.68,100.185C1804.68,77.958 1799.84,60.998 1790.16,49.305C1780.47,37.611 1767.59,31.765 1751.5,31.765C1735.41,31.765 1722.52,37.611 1712.84,49.305C1703.16,60.998 1698.32,77.958 1698.32,100.185C1698.32,122.344 1703.16,139.287 1712.84,151.015C1722.52,162.742 1735.41,168.606 1751.5,168.606C1767.59,168.606 1780.47,162.742 1790.16,151.015C1799.84,139.287 1804.68,122.344 1804.68,100.185Z" style="fill:rgb(240,78,37);fill-rule:nonzero;"/>
                </g>
                <g transform="matrix(1,0,0,0.744524,-805.915,404.108)">
                    <path d="M1882.3,204.912L1882.3,-4.542L1964.94,-4.542C1980.83,-4.542 1993.28,-2.36 2004.54,3.394C2013.72,8.085 2019.92,19.373 2023.16,26.88C2025.68,32.724 2026.01,48.497 2026.01,59.72C2026.01,69.599 2023.01,76.993 2019.01,83.566C2012.73,93.877 2011.33,103.539 1999.98,109.505C1988.63,115.471 1979.91,117.367 1963.82,117.367L1926.59,117.367L1926.59,204.912L1882.3,204.912ZM1926.59,81.878L1956.66,81.878C1967.34,81.878 1976.06,78.941 1981.04,74.798C1984.41,71.985 1988.39,67.397 1988.39,59.72C1988.39,49.288 1984.28,44.914 1981.04,41.225C1975.06,34.415 1969.27,31.662 1956.45,31.662L1926.59,31.662L1926.59,81.878Z" style="fill:rgb(240,78,37);fill-rule:nonzero;"/>
                </g>
                <g transform="matrix(1,0,0,0.744524,-824.795,404.108)">
                    <path d="M2182.47,55.697C2181.66,47.447 2178.13,41.037 2171.89,36.469C2165.65,31.901 2157.25,29.617 2146.68,29.617C2135.84,29.617 2127.52,31.833 2121.72,36.265C2115.93,40.697 2113.03,46.287 2113.03,53.037C2112.89,60.537 2116.12,66.214 2122.7,70.066C2129.28,73.918 2137.1,76.901 2146.17,79.015L2164.99,83.515C2177.12,86.242 2187.91,90.197 2197.36,95.378C2206.8,100.56 2214.23,107.225 2219.65,115.373C2225.07,123.52 2227.78,133.424 2227.78,145.083C2227.71,164.242 2220.54,179.498 2206.25,190.85C2191.97,202.202 2172.04,207.878 2146.47,207.878C2121.04,207.878 2100.76,202.083 2085.62,190.492C2070.49,178.901 2062.64,161.787 2062.1,139.151L2104.95,139.151C2105.7,149.651 2109.84,157.543 2117.38,162.827C2124.91,168.111 2134.44,170.753 2145.96,170.753C2157.21,170.753 2166.2,168.367 2172.91,163.594C2179.63,158.822 2183.02,152.617 2183.09,144.981C2183.02,137.89 2179.92,132.435 2173.78,128.617C2167.64,124.799 2158.88,121.526 2147.5,118.799L2124.69,113.072C2107.03,108.844 2093.09,102.128 2082.86,92.924C2072.63,83.719 2067.55,71.412 2067.62,56.003C2067.55,43.322 2070.95,32.225 2077.8,22.714C2084.65,13.202 2094.08,5.805 2106.08,0.52C2118.08,-4.764 2131.71,-7.406 2146.99,-7.406C2162.53,-7.406 2176.12,-4.747 2187.74,0.572C2199.37,5.89 2208.42,13.287 2214.89,22.765C2221.37,32.242 2224.71,43.219 2224.92,55.697L2182.47,55.697Z" style="fill:rgb(240,78,37);fill-rule:nonzero;"/>
                </g>
            </g>
            <g transform="matrix(29.5516,0,0,1,-22657.1,0)">
                <rect x="774.425" y="465.068" width="40.768" height="27.184" style="fill:rgb(240,78,37);"/>
            </g>
            <g id="CUTS---COLOR" serif:id="CUTS / COLOR" transform="matrix(0.569099,0,0,0.569099,219.959,224.145)">
                <path d="M770.212,713.143C764.379,716.225 757.115,717.765 748.42,717.765C737.195,717.765 728.207,714.152 721.457,706.925C714.706,699.698 711.331,690.214 711.331,678.475C711.331,665.855 715.128,655.657 722.722,647.879C730.316,640.102 739.946,636.213 751.612,636.213C759.096,636.213 765.296,637.295 770.212,639.46L770.212,649.31C764.562,646.155 758.326,644.577 751.502,644.577C742.441,644.577 735.094,647.604 729.463,653.657C723.832,659.71 721.016,667.8 721.016,677.925C721.016,687.536 723.648,695.195 728.913,700.899C734.177,706.604 741.083,709.456 749.631,709.456C757.555,709.456 764.415,707.695 770.212,704.173L770.212,713.143Z" style="fill:rgb(240,78,37);fill-rule:nonzero;"/>
                <path d="M844.005,684.528C844.005,706.686 834.008,717.765 814.014,717.765C794.864,717.765 785.29,707.108 785.29,685.794L785.29,637.534L794.534,637.534L794.534,685.188C794.534,701.367 801.358,709.456 815.005,709.456C828.175,709.456 834.76,701.642 834.76,686.014L834.76,637.534L844.005,637.534L844.005,684.528Z" style="fill:rgb(240,78,37);fill-rule:nonzero;"/>
                <path d="M910.369,645.898L887.587,645.898L887.587,716.445L878.343,716.445L878.343,645.898L855.616,645.898L855.616,637.534L910.369,637.534L910.369,645.898Z" style="fill:rgb(240,78,37);fill-rule:nonzero;"/>
                <path d="M917.963,713.253L917.963,702.357C919.21,703.458 920.705,704.448 922.448,705.329C924.191,706.209 926.025,706.952 927.951,707.558C929.877,708.163 931.812,708.631 933.756,708.961C935.701,709.291 937.498,709.456 939.149,709.456C944.835,709.456 949.082,708.401 951.888,706.292C954.695,704.182 956.098,701.147 956.098,697.185C956.098,695.057 955.63,693.204 954.695,691.627C953.759,690.049 952.466,688.609 950.815,687.307C949.164,686.005 947.211,684.757 944.955,683.565C942.698,682.373 940.268,681.116 937.663,679.796C934.912,678.402 932.344,676.989 929.959,675.559C927.575,674.128 925.502,672.55 923.741,670.826C921.98,669.102 920.595,667.148 919.587,664.966C918.578,662.783 918.073,660.224 918.073,657.289C918.073,653.694 918.862,650.566 920.439,647.907C922.017,645.247 924.09,643.055 926.658,641.331C929.226,639.607 932.151,638.323 935.435,637.479C938.718,636.635 942.066,636.213 945.477,636.213C953.255,636.213 958.923,637.149 962.481,639.02L962.481,649.42C957.822,646.192 951.842,644.577 944.542,644.577C942.524,644.577 940.506,644.788 938.489,645.21C936.471,645.632 934.673,646.32 933.096,647.274C931.519,648.228 930.235,649.457 929.244,650.961C928.253,652.465 927.758,654.299 927.758,656.464C927.758,658.481 928.134,660.224 928.886,661.691C929.638,663.159 930.748,664.498 932.216,665.708C933.683,666.919 935.471,668.093 937.581,669.23C939.69,670.367 942.121,671.615 944.872,672.972C947.697,674.366 950.375,675.834 952.906,677.374C955.438,678.915 957.657,680.621 959.565,682.492C961.472,684.363 962.986,686.436 964.105,688.71C965.223,690.985 965.783,693.59 965.783,696.524C965.783,700.413 965.022,703.706 963.499,706.402C961.977,709.098 959.922,711.29 957.336,712.978C954.75,714.665 951.769,715.885 948.394,716.637C945.019,717.389 941.46,717.765 937.718,717.765C936.471,717.765 934.93,717.664 933.096,717.463C931.262,717.261 929.391,716.967 927.483,716.582C925.575,716.197 923.769,715.72 922.063,715.151C920.357,714.583 918.99,713.95 917.963,713.253Z" style="fill:rgb(240,78,37);fill-rule:nonzero;"/>
                <path d="M1046.79,637.534L1008.93,729.541L1000.51,729.541L1038.26,637.534L1046.79,637.534Z" style="fill:rgb(240,78,37);fill-rule:nonzero;"/>
                <path d="M1140.88,713.143C1135.05,716.225 1127.79,717.765 1119.09,717.765C1107.87,717.765 1098.88,714.152 1092.13,706.925C1085.38,699.698 1082,690.214 1082,678.475C1082,665.855 1085.8,655.657 1093.39,647.879C1100.99,640.102 1110.62,636.213 1122.28,636.213C1129.77,636.213 1135.97,637.295 1140.88,639.46L1140.88,649.31C1135.23,646.155 1129,644.577 1122.17,644.577C1113.11,644.577 1105.77,647.604 1100.13,653.657C1094.5,659.71 1091.69,667.8 1091.69,677.925C1091.69,687.536 1094.32,695.195 1099.59,700.899C1104.85,706.604 1111.76,709.456 1120.3,709.456C1128.23,709.456 1135.09,707.695 1140.88,704.173L1140.88,713.143Z" style="fill:rgb(240,78,37);fill-rule:nonzero;"/>
                <path d="M1188.76,717.765C1177.57,717.765 1168.61,714.078 1161.88,706.705C1155.14,699.331 1151.78,689.738 1151.78,677.925C1151.78,665.232 1155.21,655.106 1162.07,647.549C1168.93,639.992 1178.27,636.213 1190.08,636.213C1200.98,636.213 1209.75,639.882 1216.41,647.219C1223.07,654.556 1226.4,664.149 1226.4,675.999C1226.4,688.875 1222.99,699.056 1216.16,706.54C1209.34,714.023 1200.2,717.765 1188.76,717.765ZM1189.42,644.577C1181.13,644.577 1174.4,647.567 1169.22,653.547C1164.05,659.527 1161.46,667.378 1161.46,677.099C1161.46,686.821 1163.99,694.644 1169.03,700.569C1174.08,706.494 1180.65,709.456 1188.76,709.456C1197.42,709.456 1204.24,706.631 1209.23,700.982C1214.22,695.332 1216.71,687.426 1216.71,677.264C1216.71,666.846 1214.29,658.793 1209.45,653.107C1204.61,647.421 1197.93,644.577 1189.42,644.577Z" style="fill:rgb(240,78,37);fill-rule:nonzero;"/>
                <path d="M1282.86,716.445L1241.92,716.445L1241.92,637.534L1251.16,637.534L1251.16,708.08L1282.86,708.08L1282.86,716.445Z" style="fill:rgb(240,78,37);fill-rule:nonzero;"/>
                <path d="M1325.67,717.765C1314.48,717.765 1305.52,714.078 1298.79,706.705C1292.06,699.331 1288.69,689.738 1288.69,677.925C1288.69,665.232 1292.12,655.106 1298.98,647.549C1305.84,639.992 1315.18,636.213 1326.99,636.213C1337.88,636.213 1346.66,639.882 1353.32,647.219C1359.98,654.556 1363.31,664.149 1363.31,675.999C1363.31,688.875 1359.9,699.056 1353.07,706.54C1346.25,714.023 1337.12,717.765 1325.67,717.765ZM1326.33,644.577C1318.04,644.577 1311.31,647.567 1306.13,653.547C1300.96,659.527 1298.38,667.378 1298.38,677.099C1298.38,686.821 1300.9,694.644 1305.94,700.569C1310.99,706.494 1317.56,709.456 1325.67,709.456C1334.33,709.456 1341.15,706.631 1346.14,700.982C1351.13,695.332 1353.62,687.426 1353.62,677.264C1353.62,666.846 1351.2,658.793 1346.36,653.107C1341.52,647.421 1334.84,644.577 1326.33,644.577Z" style="fill:rgb(240,78,37);fill-rule:nonzero;"/>
                <path d="M1435.4,716.445L1424.39,716.445L1411.18,694.323C1409.97,692.269 1408.8,690.517 1407.66,689.068C1406.52,687.619 1405.36,686.436 1404.17,685.519C1402.98,684.602 1401.69,683.932 1400.32,683.51C1398.94,683.088 1397.39,682.877 1395.66,682.877L1388.07,682.877L1388.07,716.445L1378.83,716.445L1378.83,637.534L1402.38,637.534C1405.83,637.534 1409.01,637.965 1411.93,638.827C1414.84,639.689 1417.37,641.001 1419.52,642.762C1421.67,644.522 1423.35,646.714 1424.56,649.337C1425.77,651.96 1426.37,655.033 1426.37,658.555C1426.37,661.306 1425.96,663.828 1425.13,666.121C1424.31,668.414 1423.13,670.459 1421.61,672.257C1420.09,674.054 1418.25,675.586 1416.11,676.852C1413.96,678.117 1411.55,679.099 1408.87,679.796L1408.87,680.016C1410.19,680.603 1411.34,681.272 1412.31,682.024C1413.28,682.776 1414.21,683.666 1415.09,684.693C1415.97,685.72 1416.84,686.885 1417.7,688.188C1418.57,689.49 1419.53,691.003 1420.59,692.727L1435.4,716.445ZM1388.07,645.898L1388.07,674.513L1400.62,674.513C1402.93,674.513 1405.07,674.164 1407.03,673.467C1408.99,672.77 1410.69,671.771 1412.12,670.468C1413.55,669.166 1414.67,667.57 1415.48,665.681C1416.28,663.792 1416.69,661.673 1416.69,659.325C1416.69,655.106 1415.32,651.814 1412.59,649.448C1409.85,647.081 1405.9,645.898 1400.73,645.898L1388.07,645.898Z" style="fill:rgb(240,78,37);fill-rule:nonzero;"/>
            </g>
        </g>
    </g>
</svg>
