<?xml version="1.0" encoding="UTF-8" standalone="no"?>
<!DOCTYPE svg PUBLIC "-//W3C//DTD SVG 1.1//EN" "http://www.w3.org/Graphics/SVG/1.1/DTD/svg11.dtd">
<svg width="100%" height="100%" viewBox="0 0 336 337" version="1.1" xmlns="http://www.w3.org/2000/svg" xmlns:xlink="http://www.w3.org/1999/xlink" xml:space="preserve" xmlns:serif="http://www.serif.com/" style="fill-rule:evenodd;clip-rule:evenodd;stroke-linecap:round;stroke-miterlimit:1.5;">
    <g transform="matrix(1,0,0,1,-477,-207)">
        <g>
            <path d="M734.997,220.854C752.189,220.854 768.677,227.683 780.834,239.84C792.991,251.997 799.82,268.485 799.82,285.677L799.82,465.772C799.82,482.965 792.991,499.453 780.834,511.609C768.677,523.766 752.189,530.596 734.997,530.596L554.902,530.596C537.71,530.596 521.222,523.766 509.065,511.609C496.908,499.453 490.079,482.965 490.079,465.772L490.079,285.677C490.079,268.485 496.908,251.997 509.065,239.84C521.222,227.683 537.71,220.854 554.902,220.854L734.997,220.854Z" style="fill:white;fill-opacity:0;stroke:black;stroke-width:14.32px;"/>
            <g transform="matrix(1,0,0,1,-12.4261,-5.28108)">
                <path d="M600.384,299.08L723.402,299.08" style="fill:none;stroke:black;stroke-width:14.32px;"/>
            </g>
            <g transform="matrix(1,0,0,1,-13.0474,77.6629)">
                <path d="M600.384,299.08L723.402,299.08" style="fill:none;stroke:black;stroke-width:14.32px;"/>
            </g>
            <g transform="matrix(1,0,0,1,-13.358,156.258)">
                <path d="M600.384,299.08L723.402,299.08" style="fill:none;stroke:black;stroke-width:14.32px;"/>
            </g>
        </g>
    </g>
</svg>
