<?xml version="1.0" encoding="UTF-8" standalone="no"?>
<!DOCTYPE svg PUBLIC "-//W3C//DTD SVG 1.1//EN" "http://www.w3.org/Graphics/SVG/1.1/DTD/svg11.dtd">
<svg width="100%" height="100%" viewBox="0 0 303 302" version="1.1" xmlns="http://www.w3.org/2000/svg" xmlns:xlink="http://www.w3.org/1999/xlink" xml:space="preserve" xmlns:serif="http://www.serif.com/" style="fill-rule:evenodd;clip-rule:evenodd;stroke-linejoin:round;stroke-miterlimit:2;">
    <g transform="matrix(1,0,0,1,-493,-164)">
        <g transform="matrix(1,0,0,1,62.1303,-4.3491)">
            <g id="SQUARE">
                <rect x="430.618" y="167.461" width="303.371" height="303.371" style="fill:rgb(39,35,35);"/>
            </g>
            <g transform="matrix(0.624557,0.780979,-0.900023,0.719757,634.616,-151.545)">
                <rect x="151.517" y="327.034" width="9.101" height="297.91" style="fill:rgb(45,43,43);"/>
            </g>
            <g transform="matrix(0.624557,0.780979,-0.900023,0.719757,659.955,-151.545)">
                <rect x="151.517" y="327.034" width="9.101" height="297.91" style="fill:rgb(45,43,43);"/>
            </g>
            <g transform="matrix(0.624557,0.780979,-0.900023,0.719757,685.293,-151.545)">
                <rect x="151.517" y="327.034" width="9.101" height="297.91" style="fill:rgb(45,43,43);"/>
            </g>
            <g transform="matrix(0.624557,0.780979,-0.900023,0.719757,710.632,-151.545)">
                <rect x="151.517" y="327.034" width="9.101" height="297.91" style="fill:rgb(45,43,43);"/>
            </g>
            <g transform="matrix(0.624557,0.780979,-0.900023,0.719757,735.97,-151.545)">
                <rect x="151.517" y="327.034" width="9.101" height="297.91" style="fill:rgb(45,43,43);"/>
            </g>
            <g transform="matrix(0.624557,0.780979,-0.900023,0.719757,761.309,-151.545)">
                <rect x="151.517" y="327.034" width="9.101" height="297.91" style="fill:rgb(45,43,43);"/>
            </g>
            <g transform="matrix(0.624557,0.780979,-0.900023,0.719757,786.647,-151.545)">
                <rect x="151.517" y="327.034" width="9.101" height="297.91" style="fill:rgb(45,43,43);"/>
            </g>
            <g transform="matrix(0.624557,0.780979,-0.900023,0.719757,811.986,-151.545)">
                <rect x="151.517" y="327.034" width="9.101" height="297.91" style="fill:rgb(45,43,43);"/>
            </g>
            <g transform="matrix(0.624557,0.780979,-0.900023,0.719757,837.324,-151.545)">
                <rect x="151.517" y="327.034" width="9.101" height="297.91" style="fill:rgb(45,43,43);"/>
            </g>
            <g transform="matrix(0.624557,0.780979,-0.900023,0.719757,862.663,-151.545)">
                <rect x="151.517" y="327.034" width="9.101" height="297.91" style="fill:rgb(45,43,43);"/>
            </g>
            <g transform="matrix(0.624557,0.780979,-0.900023,0.719757,888.001,-151.545)">
                <rect x="151.517" y="327.034" width="9.101" height="297.91" style="fill:rgb(45,43,43);"/>
            </g>
            <g transform="matrix(0.624557,0.780979,-0.900023,0.719757,913.34,-151.545)">
                <rect x="151.517" y="327.034" width="9.101" height="297.91" style="fill:rgb(45,43,43);"/>
            </g>
            <g transform="matrix(0.624557,0.780979,-0.900023,0.719757,938.678,-151.545)">
                <rect x="151.517" y="327.034" width="9.101" height="297.91" style="fill:rgb(45,43,43);"/>
            </g>
            <g transform="matrix(0.624557,0.780979,-0.900023,0.719757,964.016,-151.545)">
                <rect x="151.517" y="327.034" width="9.101" height="297.91" style="fill:rgb(45,43,43);"/>
            </g>
            <g transform="matrix(0.624557,0.780979,-0.900023,0.719757,989.355,-151.545)">
                <rect x="151.517" y="327.034" width="9.101" height="297.91" style="fill:rgb(45,43,43);"/>
            </g>
            <g transform="matrix(0.624557,0.780979,-0.900023,0.719757,1014.69,-151.545)">
                <rect x="151.517" y="327.034" width="9.101" height="297.91" style="fill:rgb(45,43,43);"/>
            </g>
            <g transform="matrix(0.624557,0.780979,-0.900023,0.719757,1040.03,-151.545)">
                <rect x="151.517" y="327.034" width="9.101" height="297.91" style="fill:rgb(45,43,43);"/>
            </g>
            <g transform="matrix(0.624557,0.780979,-0.900023,0.719757,1065.37,-151.545)">
                <rect x="151.517" y="327.034" width="9.101" height="297.91" style="fill:rgb(45,43,43);"/>
            </g>
            <g transform="matrix(0.624557,0.780979,-0.900023,0.719757,1090.71,-151.545)">
                <rect x="151.517" y="327.034" width="9.101" height="297.91" style="fill:rgb(45,43,43);"/>
            </g>
            <g transform="matrix(0.624557,0.780979,-0.900023,0.719757,1116.05,-151.545)">
                <rect x="151.517" y="327.034" width="9.101" height="297.91" style="fill:rgb(45,43,43);"/>
            </g>
            <g transform="matrix(0.624557,0.780979,-0.900023,0.719757,1141.39,-151.545)">
                <rect x="151.517" y="327.034" width="9.101" height="297.91" style="fill:rgb(45,43,43);"/>
            </g>
            <g transform="matrix(0.624557,0.780979,-0.900023,0.719757,1166.72,-151.545)">
                <rect x="151.517" y="327.034" width="9.101" height="297.91" style="fill:rgb(45,43,43);"/>
            </g>
            <g transform="matrix(0.624557,0.780979,-0.900023,0.719757,1192.06,-151.545)">
                <rect x="151.517" y="327.034" width="9.101" height="297.91" style="fill:rgb(45,43,43);"/>
            </g>
        </g>
    </g>
</svg>
