<?xml version="1.0" encoding="UTF-8" standalone="no"?>
<!DOCTYPE svg PUBLIC "-//W3C//DTD SVG 1.1//EN" "http://www.w3.org/Graphics/SVG/1.1/DTD/svg11.dtd">
<svg width="100%" height="100%" viewBox="0 0 1375 483" version="1.1" xmlns="http://www.w3.org/2000/svg" xmlns:xlink="http://www.w3.org/1999/xlink" xml:space="preserve" xmlns:serif="http://www.serif.com/" style="fill-rule:evenodd;clip-rule:evenodd;stroke-linecap:round;stroke-linejoin:round;stroke-miterlimit:1.5;">
    <g transform="matrix(1,0,0,1,-166,-195)">
        <g id="UNDERCONSTRUCTION">
            <g transform="matrix(0.5,-0.866025,0.866025,0.5,-285.622,536.168)">
                <path d="M517.5,223L796,697L239,697L517.5,223Z" style="fill:rgb(229,75,50);"/>
            </g>
            <g id="Hammer" transform="matrix(1.62975,0,0,1.62975,-1310.82,-343.323)">
                <path d="M1012,407C1012,407 1030.45,382.146 1057,392C1057.17,396.562 1062,410 1062,410" style="fill:white;fill-opacity:0;stroke:white;stroke-width:5.39px;"/>
                <path d="M1062,410L1083,410L1102.12,393.943L1111.84,391.162L1123,392.162C1123,392.162 1124.72,399 1128,399.612C1135.18,400.954 1138,399.612 1138,399.612L1138,371C1138,371 1133.54,369.381 1129,371C1124.46,372.619 1123.53,376.47 1123.53,376.47L1113,376.47L1095.27,367.739L1058,365.739C1058,365.739 1010.3,365.294 1012,407" style="fill:white;fill-opacity:0;stroke:white;stroke-width:5.39px;"/>
                <g transform="matrix(1.16667,0,0,1,-180.5,0)">
                    <path d="M1083,410L1089,542L1059,542L1065,410L1083,410Z" style="fill:white;fill-opacity:0;stroke:white;stroke-width:5.71px;"/>
                </g>
            </g>
            <g transform="matrix(1.53377,0,0,1.53377,-603.554,-168.914)">
                <path d="M929.3,406.499L912.003,406.499L912.003,364.803L875.37,364.803L875.37,406.499L858.074,406.499L858.074,310.522L875.37,310.522L875.37,349.967L912.003,349.967L912.003,310.522L929.3,310.522L929.3,406.499Z" style="fill:white;fill-rule:nonzero;"/>
                <path d="M1025.7,406.499L1007.21,406.499L999.542,383.647L962.628,383.647L955.105,406.499L940.339,406.499L972.191,310.522L993.495,310.522L1025.7,406.499ZM994.902,369.796L980.91,326.975L966.917,369.796L994.902,369.796Z" style="fill:white;fill-rule:nonzero;"/>
                <path d="M1112.04,406.499L1093.76,406.499L1078.86,367.053L1054.53,367.053L1054.53,406.499L1037.23,406.499L1037.23,310.522L1078.86,310.522C1090.43,310.522 1098.94,313.135 1104.38,318.362C1109.82,323.588 1112.54,330.35 1112.54,338.647C1112.54,350.975 1106.77,359.46 1095.24,364.1L1112.04,406.499ZM1054.53,353.202L1076.04,353.202C1082.28,353.202 1086.92,351.889 1089.96,349.264C1093.01,346.639 1094.54,343.03 1094.54,338.436C1094.54,334.217 1093.04,330.807 1090.04,328.206C1087.04,325.604 1082.84,324.303 1077.45,324.303L1054.53,324.303L1054.53,353.202Z" style="fill:white;fill-rule:nonzero;"/>
                <path d="M1129.27,406.499L1129.27,310.522L1164.64,310.522C1177.71,310.522 1188.21,315.151 1196.14,324.409C1204.06,333.667 1208.02,345.092 1208.02,358.686C1208.02,372.28 1203.94,383.647 1195.79,392.788C1187.63,401.928 1175.96,406.499 1160.77,406.499L1129.27,406.499ZM1147.06,392.366L1161.47,392.366C1169.21,392.366 1175.77,389.46 1181.16,383.647C1186.55,377.835 1189.25,369.186 1189.25,357.702C1189.25,348.327 1186.89,340.393 1182.18,333.901C1177.47,327.409 1171.25,324.163 1163.51,324.163L1147.06,324.163L1147.06,392.366Z" style="fill:white;fill-rule:nonzero;"/>
                <path d="M1335.36,406.499L1316.86,406.499L1309.2,383.647L1272.29,383.647L1264.76,406.499L1250,406.499L1281.85,310.522L1303.15,310.522L1335.36,406.499ZM1304.56,369.796L1290.57,326.975L1276.57,369.796L1304.56,369.796Z" style="fill:white;fill-rule:nonzero;"/>
                <path d="M1372.62,406.499L1354.06,406.499L1354.06,325.358L1328.54,325.358L1328.54,310.522L1398.14,310.522L1398.14,325.358L1372.62,325.358L1372.62,406.499Z" style="fill:white;fill-rule:nonzero;"/>
                <path d="M937.316,454.522L911.652,550.499L893.511,550.499L874.386,479.905L857.019,550.499L839.23,550.499L813.003,454.522L831.355,454.522L849.917,524.483L867.214,454.522L884.722,454.522L903.847,524.483L922.058,454.522L937.316,454.522Z" style="fill:white;fill-rule:nonzero;"/>
                <path d="M982.456,551.975C969.706,551.975 959.781,547.194 952.679,537.631C945.577,528.069 942.027,516.256 942.027,502.194C942.027,488.225 945.8,476.542 953.347,467.143C960.894,457.745 970.855,453.046 983.23,453.046C995.699,453.046 1005.55,457.745 1012.8,467.143C1020.04,476.542 1023.66,488.296 1023.66,502.405C1023.66,517.217 1019.9,529.182 1012.37,538.299C1004.85,547.417 994.878,551.975 982.456,551.975ZM982.597,538.053C988.831,538.053 994.105,535.475 998.417,530.319C1002.73,525.163 1004.89,515.811 1004.89,502.264C1004.89,491.249 1003.11,482.612 999.542,476.354C995.98,470.096 990.449,466.967 982.949,466.967C968.136,466.967 960.73,478.897 960.73,502.756C960.73,514.335 962.617,523.112 966.39,529.088C970.163,535.065 975.566,538.053 982.597,538.053Z" style="fill:white;fill-rule:nonzero;"/>
                <path d="M1114.57,550.499L1096.29,550.499L1081.39,511.053L1057.06,511.053L1057.06,550.499L1039.76,550.499L1039.76,454.522L1081.39,454.522C1092.96,454.522 1101.47,457.135 1106.91,462.362C1112.35,467.588 1115.07,474.35 1115.07,482.647C1115.07,494.975 1109.3,503.46 1097.77,508.1L1114.57,550.499ZM1057.06,497.202L1078.57,497.202C1084.81,497.202 1089.45,495.889 1092.5,493.264C1095.54,490.639 1097.07,487.03 1097.07,482.436C1097.07,478.217 1095.57,474.807 1092.57,472.206C1089.57,469.604 1085.37,468.303 1079.98,468.303L1057.06,468.303L1057.06,497.202Z" style="fill:white;fill-rule:nonzero;"/>
                <path d="M1207.74,550.499L1188.4,550.499L1168.15,501.631L1149.59,526.241L1149.59,550.499L1132.29,550.499L1132.29,454.522L1149.59,454.522L1149.59,504.936C1151.79,501.514 1153.39,499.147 1154.37,497.835L1186.22,454.522L1203.73,454.522L1180.95,486.092L1207.74,550.499Z" style="fill:white;fill-rule:nonzero;"/>
            </g>
        </g>
    </g>
</svg>
