<?xml version="1.0" encoding="UTF-8" standalone="no"?>
<!DOCTYPE svg PUBLIC "-//W3C//DTD SVG 1.1//EN" "http://www.w3.org/Graphics/SVG/1.1/DTD/svg11.dtd">
<svg width="100%" height="100%" viewBox="0 0 1780 317" version="1.1" xmlns="http://www.w3.org/2000/svg" xmlns:xlink="http://www.w3.org/1999/xlink" xml:space="preserve" xmlns:serif="http://www.serif.com/" style="fill-rule:evenodd;clip-rule:evenodd;stroke-linecap:round;stroke-linejoin:round;stroke-miterlimit:1.5;">
    <g transform="matrix(1,0,0,1,-40,-6)">
        <g id="VeoLogo" transform="matrix(0.928859,0,0,0.928859,43.054,-160.686)">
            <g id="Veo-Logo" serif:id="Veo Logo">
                <g id="Bike" transform="matrix(1,0,0,1,-54,0)">
                    <g transform="matrix(1,0,0,1,-214,0)">
                        <path d="M433,222L367,242L401,276C401,276 416.528,357.322 363,422" style="fill:none;stroke:url(#_Linear1);stroke-width:35.37px;"/>
                    </g>
                    <g transform="matrix(1,0,0,1,-214,0)">
                        <path d="M367,242L375,198" style="fill:none;stroke:url(#_Linear2);stroke-width:35.37px;"/>
                    </g>
                    <g transform="matrix(0.797848,0,0,0.797848,-120.274,66.5588)">
                        <circle cx="337.5" cy="445.5" r="100.5" style="fill:white;fill-opacity:0;stroke:url(#_Linear3);stroke-width:44.33px;"/>
                    </g>
                    <g transform="matrix(0.797848,0,0,0.797848,143.722,66.5588)">
                        <circle cx="337.5" cy="445.5" r="100.5" style="fill:white;fill-opacity:0;stroke:url(#_Linear4);stroke-width:44.33px;"/>
                    </g>
                    <g transform="matrix(1,0,0,1,-214,0)">
                        <path d="M402.992,310.562L650,310.562" style="fill:none;stroke:url(#_Linear5);stroke-width:35.37px;"/>
                    </g>
                    <g transform="matrix(1,0,0,1,-214,0)">
                        <path d="M650,310.562C650,310.562 682.33,344.444 626.996,422" style="fill:none;stroke:url(#_Linear6);stroke-width:35.37px;"/>
                    </g>
                    <g transform="matrix(1,0,0,1,-214,0)">
                        <path d="M610,310.562L650,254" style="fill:none;stroke:url(#_Linear7);stroke-width:35.37px;"/>
                    </g>
                    <g transform="matrix(1,0,0,1,-214,0)">
                        <path d="M618,254L704,254" style="fill:none;stroke:url(#_Linear8);stroke-width:35.37px;"/>
                    </g>
                </g>
                <g id="Bike1" serif:id="Bike" transform="matrix(1,0,0,1,-54,0)">
                    <g transform="matrix(1,0,0,1,-214,0)">
                        <path d="M433,222L367,242L401,276C401,276 416.528,357.322 363,422" style="fill:none;stroke:black;stroke-width:24px;"/>
                    </g>
                    <g transform="matrix(1,0,0,1,-214,0)">
                        <path d="M367,242L375,198" style="fill:none;stroke:black;stroke-width:24px;"/>
                    </g>
                    <g transform="matrix(0.797848,0,0,0.797848,-120.274,66.5588)">
                        <circle cx="337.5" cy="445.5" r="100.5" style="fill:white;fill-opacity:0;stroke:black;stroke-width:30.08px;"/>
                    </g>
                    <g transform="matrix(0.797848,0,0,0.797848,143.722,66.5588)">
                        <circle cx="337.5" cy="445.5" r="100.5" style="fill:white;fill-opacity:0;stroke:black;stroke-width:30.08px;"/>
                    </g>
                    <g transform="matrix(1,0,0,1,-214,0)">
                        <path d="M402.992,310.562L650,310.562" style="fill:none;stroke:black;stroke-width:24px;"/>
                    </g>
                    <g transform="matrix(1,0,0,1,-214,0)">
                        <path d="M650,310.562C650,310.562 682.33,344.444 626.996,422" style="fill:none;stroke:black;stroke-width:24px;"/>
                    </g>
                    <g transform="matrix(1,0,0,1,-214,0)">
                        <path d="M610,310.562L650,254" style="fill:none;stroke:black;stroke-width:24px;"/>
                    </g>
                    <g transform="matrix(1,0,0,1,-214,0)">
                        <path d="M618,254L704,254" style="fill:none;stroke:black;stroke-width:24px;"/>
                    </g>
                </g>
                <g transform="matrix(1.14143,0,0,1.14143,-455.398,-2.66629)">
                    <path d="M902.781,252.285L949.469,390.519L996.297,251.301C998.734,243.988 1000.56,238.902 1001.78,236.043C1003,233.184 1005.02,230.605 1007.83,228.309C1010.64,226.012 1014.48,224.863 1019.36,224.863C1022.92,224.863 1026.23,225.754 1029.27,227.535C1032.32,229.316 1034.71,231.684 1036.44,234.637C1038.18,237.59 1039.05,240.566 1039.05,243.566C1039.05,245.629 1038.77,247.855 1038.2,250.246C1037.64,252.637 1036.94,254.98 1036.09,257.277C1035.25,259.574 1034.41,261.941 1033.56,264.379L983.641,399.098C981.859,404.254 980.078,409.152 978.297,413.793C976.516,418.434 974.453,422.512 972.109,426.027C969.766,429.543 966.648,432.426 962.758,434.676C958.867,436.926 954.109,438.051 948.484,438.051C942.859,438.051 938.102,436.949 934.211,434.746C930.32,432.543 927.18,429.637 924.789,426.027C922.398,422.418 920.312,418.316 918.531,413.723C916.75,409.129 914.969,404.254 913.187,399.098L864.109,265.504C863.266,263.066 862.398,260.676 861.508,258.332C860.617,255.988 859.867,253.457 859.258,250.738C858.648,248.019 858.344,245.723 858.344,243.848C858.344,239.066 860.266,234.707 864.109,230.769C867.953,226.832 872.781,224.863 878.594,224.863C885.719,224.863 890.758,227.043 893.711,231.402C896.664,235.762 899.687,242.723 902.781,252.285Z" style="fill:rgb(10,169,166);fill-rule:nonzero;"/>
                    <path d="M1160.55,369.426L1085.45,369.426C1085.55,378.144 1087.31,385.832 1090.73,392.488C1094.15,399.144 1098.69,404.16 1104.37,407.535C1110.04,410.91 1116.3,412.598 1123.14,412.598C1127.73,412.598 1131.93,412.059 1135.73,410.98C1139.52,409.902 1143.2,408.215 1146.77,405.918C1150.33,403.621 1153.61,401.16 1156.61,398.535C1159.61,395.91 1163.5,392.348 1168.28,387.848C1170.25,386.16 1173.06,385.316 1176.72,385.316C1180.66,385.316 1183.84,386.394 1186.28,388.551C1188.72,390.707 1189.94,393.754 1189.94,397.691C1189.94,401.16 1188.58,405.215 1185.86,409.855C1183.14,414.496 1179.04,418.949 1173.56,423.215C1168.07,427.48 1161.18,431.019 1152.88,433.832C1144.59,436.644 1135.05,438.051 1124.27,438.051C1099.61,438.051 1080.44,431.019 1066.75,416.957C1053.06,402.894 1046.22,383.816 1046.22,359.723C1046.22,348.379 1047.91,337.855 1051.28,328.152C1054.66,318.449 1059.58,310.129 1066.05,303.191C1072.52,296.254 1080.48,290.934 1089.95,287.23C1099.42,283.527 1109.92,281.676 1121.45,281.676C1136.45,281.676 1149.32,284.84 1160.06,291.168C1170.79,297.496 1178.83,305.676 1184.17,315.707C1189.52,325.738 1192.19,335.957 1192.19,346.363C1192.19,356.019 1189.42,362.277 1183.89,365.137C1178.36,367.996 1170.58,369.426 1160.55,369.426ZM1085.45,347.629L1155.06,347.629C1154.12,334.504 1150.59,324.684 1144.44,318.168C1138.31,311.652 1130.22,308.394 1120.19,308.394C1110.62,308.394 1102.77,311.699 1096.63,318.309C1090.49,324.918 1086.77,334.691 1085.45,347.629Z" style="fill:rgb(10,169,166);fill-rule:nonzero;"/>
                    <path d="M1368.25,360.004C1368.25,371.441 1366.47,381.988 1362.91,391.644C1359.34,401.301 1354.19,409.598 1347.44,416.535C1340.69,423.473 1332.62,428.793 1323.25,432.496C1313.88,436.199 1303.33,438.051 1291.61,438.051C1279.98,438.051 1269.53,436.176 1260.25,432.426C1250.97,428.676 1242.93,423.309 1236.13,416.324C1229.34,409.34 1224.18,401.09 1220.66,391.574C1217.15,382.059 1215.39,371.535 1215.39,360.004C1215.39,348.379 1217.17,337.738 1220.73,328.082C1224.3,318.426 1229.41,310.176 1236.06,303.332C1242.72,296.488 1250.78,291.215 1260.25,287.512C1269.72,283.809 1280.17,281.957 1291.61,281.957C1303.23,281.957 1313.78,283.832 1323.25,287.582C1332.72,291.332 1340.83,296.676 1347.58,303.613C1354.33,310.551 1359.46,318.801 1362.98,328.363C1366.49,337.926 1368.25,348.473 1368.25,360.004ZM1329.72,360.004C1329.72,344.348 1326.27,332.16 1319.38,323.441C1312.49,314.723 1303.23,310.363 1291.61,310.363C1284.11,310.363 1277.5,312.309 1271.78,316.199C1266.06,320.09 1261.66,325.832 1258.56,333.426C1255.47,341.019 1253.92,349.879 1253.92,360.004C1253.92,370.035 1255.44,378.801 1258.49,386.301C1261.54,393.801 1265.9,399.543 1271.57,403.527C1277.24,407.512 1283.92,409.504 1291.61,409.504C1303.23,409.504 1312.49,405.121 1319.38,396.355C1326.27,387.59 1329.72,375.473 1329.72,360.004Z" style="fill:rgb(10,169,166);fill-rule:nonzero;"/>
                    <path d="M1529.27,346.363L1514.64,346.363L1514.64,412.598C1514.64,421.316 1512.72,427.738 1508.88,431.863C1505.03,435.988 1500.02,438.051 1493.83,438.051C1487.17,438.051 1482.02,435.894 1478.36,431.582C1474.7,427.269 1472.88,420.941 1472.88,412.598L1472.88,253.973C1472.88,244.973 1474.89,238.457 1478.92,234.426C1482.95,230.394 1489.47,228.379 1498.47,228.379L1566.39,228.379C1575.77,228.379 1583.78,228.777 1590.44,229.574C1597.09,230.371 1603.09,231.988 1608.44,234.426C1614.91,237.144 1620.62,241.035 1625.59,246.098C1630.56,251.16 1634.34,257.043 1636.91,263.746C1639.49,270.449 1640.78,277.551 1640.78,285.051C1640.78,300.426 1636.44,312.707 1627.77,321.894C1619.1,331.082 1605.95,337.598 1588.33,341.441C1595.73,345.379 1602.81,351.191 1609.56,358.879C1616.31,366.566 1622.34,374.746 1627.63,383.418C1632.93,392.09 1637.06,399.918 1640.01,406.902C1642.96,413.887 1644.44,418.691 1644.44,421.316C1644.44,424.035 1643.57,426.73 1641.84,429.402C1640.1,432.074 1637.73,434.184 1634.73,435.73C1631.73,437.277 1628.27,438.051 1624.33,438.051C1619.64,438.051 1615.7,436.949 1612.52,434.746C1609.33,432.543 1606.59,429.754 1604.29,426.379C1601.99,423.004 1598.88,418.035 1594.94,411.473L1578.2,383.629C1572.2,373.41 1566.84,365.629 1562.1,360.285C1557.37,354.941 1552.56,351.285 1547.69,349.316C1542.81,347.348 1536.67,346.363 1529.27,346.363ZM1553.17,259.738L1514.64,259.738L1514.64,316.41L1552.05,316.41C1562.08,316.41 1570.52,315.543 1577.36,313.809C1584.2,312.074 1589.43,309.121 1593.04,304.949C1596.65,300.777 1598.45,295.035 1598.45,287.723C1598.45,282.004 1597,276.965 1594.09,272.605C1591.19,268.246 1587.16,264.988 1582,262.832C1577.12,260.769 1567.52,259.738 1553.17,259.738Z" style="fill:rgb(237,254,254);fill-rule:nonzero;"/>
                    <path d="M1716.02,303.754L1716.02,414.707C1716.02,422.394 1714.19,428.207 1710.53,432.144C1706.88,436.082 1702.23,438.051 1696.61,438.051C1690.98,438.051 1686.41,436.035 1682.9,432.004C1679.38,427.973 1677.62,422.207 1677.62,414.707L1677.62,304.879C1677.62,297.285 1679.38,291.566 1682.9,287.723C1686.41,283.879 1690.98,281.957 1696.61,281.957C1702.23,281.957 1706.88,283.879 1710.53,287.723C1714.19,291.566 1716.02,296.91 1716.02,303.754ZM1697.03,264.098C1691.69,264.098 1687.12,262.457 1683.32,259.176C1679.52,255.894 1677.62,251.254 1677.62,245.254C1677.62,239.816 1679.57,235.34 1683.46,231.824C1687.35,228.309 1691.88,226.551 1697.03,226.551C1702,226.551 1706.41,228.144 1710.25,231.332C1714.09,234.519 1716.02,239.16 1716.02,245.254C1716.02,251.16 1714.14,255.777 1710.39,259.105C1706.64,262.434 1702.19,264.098 1697.03,264.098Z" style="fill:rgb(237,254,254);fill-rule:nonzero;"/>
                    <path d="M1860.86,416.113L1860.86,412.316C1855.7,418.223 1850.62,423.027 1845.6,426.73C1840.59,430.434 1835.15,433.246 1829.29,435.168C1823.43,437.09 1817.03,438.051 1810.09,438.051C1800.91,438.051 1792.4,436.105 1784.57,432.215C1776.74,428.324 1769.97,422.769 1764.25,415.551C1758.53,408.332 1754.19,399.848 1751.24,390.098C1748.29,380.348 1746.81,369.801 1746.81,358.457C1746.81,334.457 1752.67,315.754 1764.39,302.348C1776.11,288.941 1791.53,282.238 1810.66,282.238C1821.72,282.238 1831.05,284.137 1838.64,287.934C1846.23,291.73 1853.64,297.566 1860.86,305.441L1860.86,248.769C1860.86,240.894 1862.43,234.941 1865.57,230.91C1868.71,226.879 1873.19,224.863 1879,224.863C1884.81,224.863 1889.29,226.715 1892.43,230.418C1895.57,234.121 1897.14,239.582 1897.14,246.801L1897.14,416.113C1897.14,423.426 1895.45,428.91 1892.08,432.566C1888.7,436.223 1884.34,438.051 1879,438.051C1873.75,438.051 1869.41,436.152 1865.99,432.355C1862.57,428.559 1860.86,423.144 1860.86,416.113ZM1785.34,359.723C1785.34,370.129 1786.96,378.988 1790.19,386.301C1793.43,393.613 1797.86,399.121 1803.48,402.824C1809.11,406.527 1815.25,408.379 1821.91,408.379C1828.66,408.379 1834.82,406.621 1840.4,403.105C1845.98,399.59 1850.43,394.199 1853.76,386.934C1857.09,379.668 1858.75,370.598 1858.75,359.723C1858.75,349.504 1857.09,340.715 1853.76,333.355C1850.43,325.996 1845.93,320.371 1840.26,316.48C1834.59,312.59 1828.38,310.644 1821.62,310.644C1814.59,310.644 1808.31,312.637 1802.78,316.621C1797.25,320.605 1792.96,326.324 1789.91,333.777C1786.87,341.23 1785.34,349.879 1785.34,359.723Z" style="fill:rgb(237,254,254);fill-rule:nonzero;"/>
                    <path d="M2042.83,369.426L1967.73,369.426C1967.83,378.144 1969.59,385.832 1973.01,392.488C1976.43,399.144 1980.98,404.16 1986.65,407.535C1992.32,410.91 1998.58,412.598 2005.42,412.598C2010.02,412.598 2014.21,412.059 2018.01,410.98C2021.81,409.902 2025.48,408.215 2029.05,405.918C2032.61,403.621 2035.89,401.16 2038.89,398.535C2041.89,395.91 2045.78,392.348 2050.56,387.848C2052.53,386.16 2055.34,385.316 2059,385.316C2062.94,385.316 2066.12,386.394 2068.56,388.551C2071,390.707 2072.22,393.754 2072.22,397.691C2072.22,401.16 2070.86,405.215 2068.14,409.855C2065.42,414.496 2061.32,418.949 2055.84,423.215C2050.35,427.48 2043.46,431.019 2035.16,433.832C2026.87,436.644 2017.33,438.051 2006.55,438.051C1981.89,438.051 1962.72,431.019 1949.03,416.957C1935.34,402.894 1928.5,383.816 1928.5,359.723C1928.5,348.379 1930.19,337.855 1933.56,328.152C1936.94,318.449 1941.86,310.129 1948.33,303.191C1954.8,296.254 1962.77,290.934 1972.23,287.23C1981.7,283.527 1992.2,281.676 2003.73,281.676C2018.73,281.676 2031.6,284.84 2042.34,291.168C2053.07,297.496 2061.11,305.676 2066.45,315.707C2071.8,325.738 2074.47,335.957 2074.47,346.363C2074.47,356.019 2071.7,362.277 2066.17,365.137C2060.64,367.996 2052.86,369.426 2042.83,369.426ZM1967.73,347.629L2037.34,347.629C2036.41,334.504 2032.87,324.684 2026.73,318.168C2020.59,311.652 2012.5,308.394 2002.47,308.394C1992.91,308.394 1985.06,311.699 1978.91,318.309C1972.77,324.918 1969.05,334.691 1967.73,347.629Z" style="fill:rgb(237,254,254);fill-rule:nonzero;"/>
                </g>
            </g>
        </g>
    </g>
    <defs>
        <linearGradient id="_Linear1" x1="0" y1="0" x2="1" y2="0" gradientUnits="userSpaceOnUse" gradientTransform="matrix(424.363,0,0,304.184,68.816,350.092)"><stop offset="0" style="stop-color:rgb(10,169,166);stop-opacity:1"/><stop offset="0.55" style="stop-color:rgb(21,185,182);stop-opacity:1"/><stop offset="1" style="stop-color:rgb(64,244,241);stop-opacity:1"/></linearGradient>
        <linearGradient id="_Linear2" x1="0" y1="0" x2="1" y2="0" gradientUnits="userSpaceOnUse" gradientTransform="matrix(424.363,0,0,304.184,68.816,350.092)"><stop offset="0" style="stop-color:rgb(10,169,166);stop-opacity:1"/><stop offset="0.55" style="stop-color:rgb(21,185,182);stop-opacity:1"/><stop offset="1" style="stop-color:rgb(64,244,241);stop-opacity:1"/></linearGradient>
        <linearGradient id="_Linear3" x1="0" y1="0" x2="1" y2="0" gradientUnits="userSpaceOnUse" gradientTransform="matrix(424.363,0,0,304.184,68.816,350.092)"><stop offset="0" style="stop-color:rgb(10,169,166);stop-opacity:1"/><stop offset="0.55" style="stop-color:rgb(21,185,182);stop-opacity:1"/><stop offset="1" style="stop-color:rgb(64,244,241);stop-opacity:1"/></linearGradient>
        <linearGradient id="_Linear4" x1="0" y1="0" x2="1" y2="0" gradientUnits="userSpaceOnUse" gradientTransform="matrix(424.363,0,0,304.184,68.816,350.092)"><stop offset="0" style="stop-color:rgb(10,169,166);stop-opacity:1"/><stop offset="0.55" style="stop-color:rgb(21,185,182);stop-opacity:1"/><stop offset="1" style="stop-color:rgb(64,244,241);stop-opacity:1"/></linearGradient>
        <linearGradient id="_Linear5" x1="0" y1="0" x2="1" y2="0" gradientUnits="userSpaceOnUse" gradientTransform="matrix(424.363,0,0,304.184,68.816,350.092)"><stop offset="0" style="stop-color:rgb(10,169,166);stop-opacity:1"/><stop offset="0.55" style="stop-color:rgb(21,185,182);stop-opacity:1"/><stop offset="1" style="stop-color:rgb(64,244,241);stop-opacity:1"/></linearGradient>
        <linearGradient id="_Linear6" x1="0" y1="0" x2="1" y2="0" gradientUnits="userSpaceOnUse" gradientTransform="matrix(424.363,0,0,304.184,68.816,350.092)"><stop offset="0" style="stop-color:rgb(10,169,166);stop-opacity:1"/><stop offset="0.55" style="stop-color:rgb(21,185,182);stop-opacity:1"/><stop offset="1" style="stop-color:rgb(64,244,241);stop-opacity:1"/></linearGradient>
        <linearGradient id="_Linear7" x1="0" y1="0" x2="1" y2="0" gradientUnits="userSpaceOnUse" gradientTransform="matrix(424.363,0,0,304.184,68.816,350.092)"><stop offset="0" style="stop-color:rgb(10,169,166);stop-opacity:1"/><stop offset="0.55" style="stop-color:rgb(21,185,182);stop-opacity:1"/><stop offset="1" style="stop-color:rgb(64,244,241);stop-opacity:1"/></linearGradient>
        <linearGradient id="_Linear8" x1="0" y1="0" x2="1" y2="0" gradientUnits="userSpaceOnUse" gradientTransform="matrix(424.363,0,0,304.184,68.816,350.092)"><stop offset="0" style="stop-color:rgb(10,169,166);stop-opacity:1"/><stop offset="0.55" style="stop-color:rgb(21,185,182);stop-opacity:1"/><stop offset="1" style="stop-color:rgb(64,244,241);stop-opacity:1"/></linearGradient>
    </defs>
</svg>
